{
    "asset" : {
        "generator" : "Khronos glTF Blender I/O v3.3.32",
        "version" : "2.0"
    },
    "scene" : 0,
    "scenes" : [
        {
            "name" : "Scene",
            "nodes" : [
                0,
                1
            ]
        }
    ],
    "nodes" : [
        {
            "name" : "Empty",
            "rotation" : [
                0.5000000596046448,
                0.5000000596046448,
                -0.5,
                0.5
            ],
            "scale" : [
                2.299999952316284,
                2.299999952316284,
                2.299999952316284
            ],
            "translation" : [
                0,
                0.10000000149011612,
                4.200000286102295
            ]
        },
        {
            "mesh" : 0,
            "name" : "Sphere.003",
            "scale" : [
                1,
                1,
                0.880230188369751
            ]
        }
    ],
    "materials" : [
        {
            "doubleSided" : true,
            "name" : "Material",
            "pbrMetallicRoughness" : {
                "baseColorFactor" : [
                    0.8000000715255737,
                    0,
                    0.005690040998160839,
                    1
                ],
                "metallicFactor" : 0,
                "roughnessFactor" : 0.5
            }
        }
    ],
    "meshes" : [
        {
            "name" : "Sphere.003",
            "primitives" : [
                {
                    "attributes" : {
                        "POSITION" : 0,
                        "NORMAL" : 1
                    },
                    "indices" : 2,
                    "material" : 0
                }
            ]
        }
    ],
    "accessors" : [
        {
            "bufferView" : 0,
            "componentType" : 5126,
            "count" : 248118,
            "max" : [
                0.5548170804977417,
                3.2607719898223877,
                3.3111836910247803
            ],
            "min" : [
                -1.0661875009536743,
                -0.46303099393844604,
                -3.3111836910247803
            ],
            "type" : "VEC3"
        },
        {
            "bufferView" : 1,
            "componentType" : 5126,
            "count" : 248118,
            "type" : "VEC3"
        },
        {
            "bufferView" : 2,
            "componentType" : 5125,
            "count" : 656976,
            "type" : "SCALAR"
        }
    ],
    "bufferViews" : [
        {
            "buffer" : 0,
            "byteLength" : 2977416,
            "byteOffset" : 0,
            "target" : 34962
        },
        {
            "buffer" : 0,
            "byteLength" : 2977416,
            "byteOffset" : 2977416,
            "target" : 34962
        },
        {
            "buffer" : 0,
            "byteLength" : 2627904,
            "byteOffset" : 5954832,
            "target" : 34963
        }
    ],
    "buffers" : [
        {
            "byteLength" : 8582736,
            "uri" : "4.bin"
        }
    ]
}
